<mxfile host="app.diagrams.net" agent="Mozilla/5.0 (Windows NT 10.0; Win64; x64; rv:132.0) Gecko/20100101 Firefox/132.0" version="24.8.6">
  <diagram name="Page-1" id="Uj56gvTzGLHVdGBOoOnG">
    <mxGraphModel grid="1" page="1" gridSize="10" guides="1" tooltips="1" connect="1" arrows="1" fold="1" pageScale="1" pageWidth="827" pageHeight="1169" math="0" shadow="0">
      <root>
        <mxCell id="0" />
        <mxCell id="1" parent="0" />
        <mxCell id="TBztsBzBwayd78X2MHeu-1" value="G_Sales" style="rounded=0;whiteSpace=wrap;html=1;" vertex="1" parent="1">
          <mxGeometry x="200" y="200" width="100" height="30" as="geometry" />
        </mxCell>
        <mxCell id="TBztsBzBwayd78X2MHeu-2" value="G_Operations" style="rounded=0;whiteSpace=wrap;html=1;" vertex="1" parent="1">
          <mxGeometry x="200" y="280" width="100" height="30" as="geometry" />
        </mxCell>
        <mxCell id="TBztsBzBwayd78X2MHeu-3" value="G_Marketing" style="rounded=0;whiteSpace=wrap;html=1;" vertex="1" parent="1">
          <mxGeometry x="200" y="240" width="100" height="30" as="geometry" />
        </mxCell>
        <mxCell id="TBztsBzBwayd78X2MHeu-4" value="G_Management" style="rounded=0;whiteSpace=wrap;html=1;" vertex="1" parent="1">
          <mxGeometry x="200" y="320" width="100" height="30" as="geometry" />
        </mxCell>
        <mxCell id="TBztsBzBwayd78X2MHeu-54" value="M" style="rounded=0;orthogonalLoop=1;jettySize=auto;html=1;exitX=1;exitY=0.5;exitDx=0;exitDy=0;entryX=0;entryY=0.25;entryDx=0;entryDy=0;" edge="1" parent="1" source="TBztsBzBwayd78X2MHeu-5" target="TBztsBzBwayd78X2MHeu-52">
          <mxGeometry relative="1" as="geometry" />
        </mxCell>
        <mxCell id="TBztsBzBwayd78X2MHeu-5" value="DL_Sales_M" style="rounded=0;whiteSpace=wrap;html=1;" vertex="1" parent="1">
          <mxGeometry x="400" y="120" width="120" height="30" as="geometry" />
        </mxCell>
        <mxCell id="TBztsBzBwayd78X2MHeu-6" value="DL_Sales_R" style="rounded=0;whiteSpace=wrap;html=1;" vertex="1" parent="1">
          <mxGeometry x="400" y="160" width="120" height="30" as="geometry" />
        </mxCell>
        <mxCell id="TBztsBzBwayd78X2MHeu-7" value="DL_Marketing_M" style="rounded=0;whiteSpace=wrap;html=1;" vertex="1" parent="1">
          <mxGeometry x="400" y="200" width="120" height="30" as="geometry" />
        </mxCell>
        <mxCell id="TBztsBzBwayd78X2MHeu-8" value="DL_Marketing_R" style="rounded=0;whiteSpace=wrap;html=1;" vertex="1" parent="1">
          <mxGeometry x="400" y="240" width="120" height="30" as="geometry" />
        </mxCell>
        <mxCell id="TBztsBzBwayd78X2MHeu-9" value="DL_Operations_M" style="rounded=0;whiteSpace=wrap;html=1;" vertex="1" parent="1">
          <mxGeometry x="400" y="280" width="120" height="30" as="geometry" />
        </mxCell>
        <mxCell id="TBztsBzBwayd78X2MHeu-10" value="DL_Operations_R" style="rounded=0;whiteSpace=wrap;html=1;" vertex="1" parent="1">
          <mxGeometry x="400" y="320" width="120" height="30" as="geometry" />
        </mxCell>
        <mxCell id="TBztsBzBwayd78X2MHeu-11" value="DL_Management_M" style="rounded=0;whiteSpace=wrap;html=1;" vertex="1" parent="1">
          <mxGeometry x="400" y="360" width="120" height="30" as="geometry" />
        </mxCell>
        <mxCell id="TBztsBzBwayd78X2MHeu-12" value="DL_Management_R" style="rounded=0;whiteSpace=wrap;html=1;" vertex="1" parent="1">
          <mxGeometry x="400" y="400" width="120" height="30" as="geometry" />
        </mxCell>
        <mxCell id="TBztsBzBwayd78X2MHeu-17" value="lFruehstueck" style="rounded=0;whiteSpace=wrap;html=1;" vertex="1" parent="1">
          <mxGeometry x="40" y="200" width="100" height="30" as="geometry" />
        </mxCell>
        <mxCell id="TBztsBzBwayd78X2MHeu-18" value="aBauer" style="rounded=0;whiteSpace=wrap;html=1;" vertex="1" parent="1">
          <mxGeometry x="40" y="280" width="100" height="30" as="geometry" />
        </mxCell>
        <mxCell id="TBztsBzBwayd78X2MHeu-19" value="bUhlig" style="rounded=0;whiteSpace=wrap;html=1;" vertex="1" parent="1">
          <mxGeometry x="40" y="240" width="100" height="30" as="geometry" />
        </mxCell>
        <mxCell id="TBztsBzBwayd78X2MHeu-20" value="cMaier" style="rounded=0;whiteSpace=wrap;html=1;" vertex="1" parent="1">
          <mxGeometry x="40" y="320" width="100" height="30" as="geometry" />
        </mxCell>
        <mxCell id="TBztsBzBwayd78X2MHeu-21" value="" style="endArrow=none;html=1;rounded=0;entryX=1;entryY=0.5;entryDx=0;entryDy=0;exitX=0;exitY=0.5;exitDx=0;exitDy=0;" edge="1" parent="1" source="TBztsBzBwayd78X2MHeu-1" target="TBztsBzBwayd78X2MHeu-17">
          <mxGeometry width="50" height="50" relative="1" as="geometry">
            <mxPoint x="140" y="340" as="sourcePoint" />
            <mxPoint x="190" y="290" as="targetPoint" />
          </mxGeometry>
        </mxCell>
        <mxCell id="TBztsBzBwayd78X2MHeu-22" value="" style="endArrow=none;html=1;rounded=0;entryX=1;entryY=0.5;entryDx=0;entryDy=0;exitX=0;exitY=0.5;exitDx=0;exitDy=0;" edge="1" parent="1" source="TBztsBzBwayd78X2MHeu-3" target="TBztsBzBwayd78X2MHeu-19">
          <mxGeometry width="50" height="50" relative="1" as="geometry">
            <mxPoint x="210" y="270" as="sourcePoint" />
            <mxPoint x="160" y="250" as="targetPoint" />
          </mxGeometry>
        </mxCell>
        <mxCell id="TBztsBzBwayd78X2MHeu-23" value="" style="endArrow=none;html=1;rounded=0;entryX=1;entryY=0.5;entryDx=0;entryDy=0;exitX=0;exitY=0.5;exitDx=0;exitDy=0;" edge="1" parent="1" source="TBztsBzBwayd78X2MHeu-2" target="TBztsBzBwayd78X2MHeu-18">
          <mxGeometry width="50" height="50" relative="1" as="geometry">
            <mxPoint x="240" y="235" as="sourcePoint" />
            <mxPoint x="180" y="235" as="targetPoint" />
          </mxGeometry>
        </mxCell>
        <mxCell id="TBztsBzBwayd78X2MHeu-24" value="" style="endArrow=none;html=1;rounded=0;entryX=1;entryY=0.5;entryDx=0;entryDy=0;exitX=0;exitY=0.5;exitDx=0;exitDy=0;" edge="1" parent="1" source="TBztsBzBwayd78X2MHeu-4" target="TBztsBzBwayd78X2MHeu-20">
          <mxGeometry width="50" height="50" relative="1" as="geometry">
            <mxPoint x="250" y="245" as="sourcePoint" />
            <mxPoint x="190" y="245" as="targetPoint" />
          </mxGeometry>
        </mxCell>
        <mxCell id="TBztsBzBwayd78X2MHeu-28" value="" style="endArrow=none;html=1;rounded=0;exitX=1;exitY=0.5;exitDx=0;exitDy=0;entryX=0;entryY=0.5;entryDx=0;entryDy=0;fillColor=#dae8fc;strokeColor=#6c8ebf;" edge="1" parent="1" source="TBztsBzBwayd78X2MHeu-1" target="TBztsBzBwayd78X2MHeu-5">
          <mxGeometry width="50" height="50" relative="1" as="geometry">
            <mxPoint x="160" y="160" as="sourcePoint" />
            <mxPoint x="250" y="90" as="targetPoint" />
          </mxGeometry>
        </mxCell>
        <mxCell id="TBztsBzBwayd78X2MHeu-30" value="" style="endArrow=none;html=1;rounded=0;entryX=1;entryY=0.5;entryDx=0;entryDy=0;exitX=0;exitY=0.5;exitDx=0;exitDy=0;fillColor=#d5e8d4;strokeColor=#82b366;" edge="1" parent="1" source="TBztsBzBwayd78X2MHeu-7" target="TBztsBzBwayd78X2MHeu-3">
          <mxGeometry width="50" height="50" relative="1" as="geometry">
            <mxPoint x="180" y="180" as="sourcePoint" />
            <mxPoint x="270" y="110" as="targetPoint" />
          </mxGeometry>
        </mxCell>
        <mxCell id="TBztsBzBwayd78X2MHeu-31" value="" style="endArrow=none;html=1;rounded=0;entryX=1;entryY=0.5;entryDx=0;entryDy=0;exitX=0;exitY=0.5;exitDx=0;exitDy=0;fillColor=#f8cecc;strokeColor=#b85450;" edge="1" parent="1" source="TBztsBzBwayd78X2MHeu-9" target="TBztsBzBwayd78X2MHeu-2">
          <mxGeometry width="50" height="50" relative="1" as="geometry">
            <mxPoint x="190" y="190" as="sourcePoint" />
            <mxPoint x="280" y="120" as="targetPoint" />
          </mxGeometry>
        </mxCell>
        <mxCell id="TBztsBzBwayd78X2MHeu-32" value="" style="endArrow=none;html=1;rounded=0;entryX=0;entryY=0.5;entryDx=0;entryDy=0;exitX=1;exitY=0.5;exitDx=0;exitDy=0;fillColor=#e1d5e7;strokeColor=#9673a6;" edge="1" parent="1" source="TBztsBzBwayd78X2MHeu-4" target="TBztsBzBwayd78X2MHeu-11">
          <mxGeometry width="50" height="50" relative="1" as="geometry">
            <mxPoint x="200" y="200" as="sourcePoint" />
            <mxPoint x="290" y="130" as="targetPoint" />
          </mxGeometry>
        </mxCell>
        <mxCell id="TBztsBzBwayd78X2MHeu-33" value="DL_Vorlagen_M" style="rounded=0;whiteSpace=wrap;html=1;" vertex="1" parent="1">
          <mxGeometry x="400" y="440" width="120" height="30" as="geometry" />
        </mxCell>
        <mxCell id="TBztsBzBwayd78X2MHeu-34" value="DL_Vorlagen_R" style="rounded=0;whiteSpace=wrap;html=1;" vertex="1" parent="1">
          <mxGeometry x="400" y="480" width="120" height="30" as="geometry" />
        </mxCell>
        <mxCell id="TBztsBzBwayd78X2MHeu-35" value="" style="endArrow=none;html=1;rounded=0;entryX=1;entryY=0.5;entryDx=0;entryDy=0;exitX=0;exitY=0.5;exitDx=0;exitDy=0;fillColor=#dae8fc;strokeColor=#6c8ebf;" edge="1" parent="1" source="TBztsBzBwayd78X2MHeu-8" target="TBztsBzBwayd78X2MHeu-1">
          <mxGeometry width="50" height="50" relative="1" as="geometry">
            <mxPoint x="220" y="160" as="sourcePoint" />
            <mxPoint x="270" y="110" as="targetPoint" />
          </mxGeometry>
        </mxCell>
        <mxCell id="TBztsBzBwayd78X2MHeu-36" value="" style="endArrow=none;html=1;rounded=0;entryX=1;entryY=0.5;entryDx=0;entryDy=0;exitX=0;exitY=0.5;exitDx=0;exitDy=0;fillColor=#e1d5e7;strokeColor=#9673a6;" edge="1" parent="1" source="TBztsBzBwayd78X2MHeu-33" target="TBztsBzBwayd78X2MHeu-4">
          <mxGeometry width="50" height="50" relative="1" as="geometry">
            <mxPoint x="230" y="170" as="sourcePoint" />
            <mxPoint x="280" y="120" as="targetPoint" />
          </mxGeometry>
        </mxCell>
        <mxCell id="TBztsBzBwayd78X2MHeu-37" value="" style="endArrow=none;html=1;rounded=0;entryX=0;entryY=0.5;entryDx=0;entryDy=0;exitX=1;exitY=0.5;exitDx=0;exitDy=0;fillColor=#f8cecc;strokeColor=#b85450;" edge="1" parent="1" source="TBztsBzBwayd78X2MHeu-2" target="TBztsBzBwayd78X2MHeu-34">
          <mxGeometry width="50" height="50" relative="1" as="geometry">
            <mxPoint x="370" y="320" as="sourcePoint" />
            <mxPoint x="290" y="130" as="targetPoint" />
          </mxGeometry>
        </mxCell>
        <mxCell id="TBztsBzBwayd78X2MHeu-38" value="" style="endArrow=none;html=1;rounded=0;entryX=1;entryY=0.5;entryDx=0;entryDy=0;exitX=0;exitY=0.5;exitDx=0;exitDy=0;fillColor=#d5e8d4;strokeColor=#82b366;" edge="1" parent="1" source="TBztsBzBwayd78X2MHeu-34" target="TBztsBzBwayd78X2MHeu-3">
          <mxGeometry width="50" height="50" relative="1" as="geometry">
            <mxPoint x="250" y="190" as="sourcePoint" />
            <mxPoint x="300" y="140" as="targetPoint" />
          </mxGeometry>
        </mxCell>
        <mxCell id="TBztsBzBwayd78X2MHeu-39" value="" style="endArrow=none;html=1;rounded=0;entryX=1;entryY=0.5;entryDx=0;entryDy=0;exitX=0;exitY=0.5;exitDx=0;exitDy=0;fillColor=#dae8fc;strokeColor=#6c8ebf;" edge="1" parent="1" source="TBztsBzBwayd78X2MHeu-34" target="TBztsBzBwayd78X2MHeu-1">
          <mxGeometry width="50" height="50" relative="1" as="geometry">
            <mxPoint x="260" y="200" as="sourcePoint" />
            <mxPoint x="310" y="150" as="targetPoint" />
          </mxGeometry>
        </mxCell>
        <mxCell id="TBztsBzBwayd78X2MHeu-40" value="" style="endArrow=none;html=1;rounded=0;entryX=0;entryY=0.5;entryDx=0;entryDy=0;exitX=1;exitY=0.5;exitDx=0;exitDy=0;fillColor=#e1d5e7;strokeColor=#9673a6;" edge="1" parent="1" source="TBztsBzBwayd78X2MHeu-4" target="TBztsBzBwayd78X2MHeu-6">
          <mxGeometry width="50" height="50" relative="1" as="geometry">
            <mxPoint x="270" y="210" as="sourcePoint" />
            <mxPoint x="320" y="160" as="targetPoint" />
          </mxGeometry>
        </mxCell>
        <mxCell id="TBztsBzBwayd78X2MHeu-41" value="" style="endArrow=none;html=1;rounded=0;entryX=0;entryY=0.5;entryDx=0;entryDy=0;exitX=1;exitY=0.5;exitDx=0;exitDy=0;fillColor=#d5e8d4;strokeColor=#82b366;" edge="1" parent="1" source="TBztsBzBwayd78X2MHeu-3" target="TBztsBzBwayd78X2MHeu-10">
          <mxGeometry width="50" height="50" relative="1" as="geometry">
            <mxPoint x="270" y="160" as="sourcePoint" />
            <mxPoint x="320" y="110" as="targetPoint" />
          </mxGeometry>
        </mxCell>
        <mxCell id="TBztsBzBwayd78X2MHeu-42" value="" style="endArrow=none;html=1;rounded=0;entryX=0;entryY=0.5;entryDx=0;entryDy=0;exitX=1;exitY=0.5;exitDx=0;exitDy=0;fillColor=#dae8fc;strokeColor=#6c8ebf;" edge="1" parent="1" source="TBztsBzBwayd78X2MHeu-1" target="TBztsBzBwayd78X2MHeu-12">
          <mxGeometry width="50" height="50" relative="1" as="geometry">
            <mxPoint x="250" y="170" as="sourcePoint" />
            <mxPoint x="300" y="120" as="targetPoint" />
          </mxGeometry>
        </mxCell>
        <mxCell id="TBztsBzBwayd78X2MHeu-48" value="Marketing" style="rounded=0;whiteSpace=wrap;html=1;" vertex="1" parent="1">
          <mxGeometry x="600" y="220" width="100" height="30" as="geometry" />
        </mxCell>
        <mxCell id="TBztsBzBwayd78X2MHeu-49" value="Management" style="rounded=0;whiteSpace=wrap;html=1;" vertex="1" parent="1">
          <mxGeometry x="600" y="380" width="100" height="30" as="geometry" />
        </mxCell>
        <mxCell id="TBztsBzBwayd78X2MHeu-50" value="Operations" style="rounded=0;whiteSpace=wrap;html=1;" vertex="1" parent="1">
          <mxGeometry x="600" y="300" width="100" height="30" as="geometry" />
        </mxCell>
        <mxCell id="TBztsBzBwayd78X2MHeu-51" value="Vorlagen" style="rounded=0;whiteSpace=wrap;html=1;" vertex="1" parent="1">
          <mxGeometry x="600" y="460" width="100" height="30" as="geometry" />
        </mxCell>
        <mxCell id="TBztsBzBwayd78X2MHeu-52" value="Sales" style="rounded=0;whiteSpace=wrap;html=1;" vertex="1" parent="1">
          <mxGeometry x="600" y="140" width="100" height="30" as="geometry" />
        </mxCell>
        <mxCell id="TBztsBzBwayd78X2MHeu-55" value="M" style="rounded=0;orthogonalLoop=1;jettySize=auto;html=1;exitX=1;exitY=0.5;exitDx=0;exitDy=0;entryX=0;entryY=0.25;entryDx=0;entryDy=0;" edge="1" parent="1" source="TBztsBzBwayd78X2MHeu-7" target="TBztsBzBwayd78X2MHeu-48">
          <mxGeometry relative="1" as="geometry">
            <mxPoint x="570" y="177" as="sourcePoint" />
            <mxPoint x="660" y="190" as="targetPoint" />
          </mxGeometry>
        </mxCell>
        <mxCell id="TBztsBzBwayd78X2MHeu-56" value="M" style="rounded=0;orthogonalLoop=1;jettySize=auto;html=1;exitX=1;exitY=0.5;exitDx=0;exitDy=0;entryX=0;entryY=0.25;entryDx=0;entryDy=0;" edge="1" parent="1" source="TBztsBzBwayd78X2MHeu-9" target="TBztsBzBwayd78X2MHeu-50">
          <mxGeometry relative="1" as="geometry">
            <mxPoint x="560" y="225" as="sourcePoint" />
            <mxPoint x="650" y="238" as="targetPoint" />
          </mxGeometry>
        </mxCell>
        <mxCell id="TBztsBzBwayd78X2MHeu-57" value="M" style="rounded=0;orthogonalLoop=1;jettySize=auto;html=1;exitX=1;exitY=0.5;exitDx=0;exitDy=0;entryX=0;entryY=0.25;entryDx=0;entryDy=0;" edge="1" parent="1" source="TBztsBzBwayd78X2MHeu-11" target="TBztsBzBwayd78X2MHeu-49">
          <mxGeometry relative="1" as="geometry">
            <mxPoint x="570" y="235" as="sourcePoint" />
            <mxPoint x="660" y="248" as="targetPoint" />
          </mxGeometry>
        </mxCell>
        <mxCell id="TBztsBzBwayd78X2MHeu-58" value="M" style="rounded=0;orthogonalLoop=1;jettySize=auto;html=1;exitX=1;exitY=0.5;exitDx=0;exitDy=0;entryX=0;entryY=0.25;entryDx=0;entryDy=0;" edge="1" parent="1" source="TBztsBzBwayd78X2MHeu-33" target="TBztsBzBwayd78X2MHeu-51">
          <mxGeometry relative="1" as="geometry">
            <mxPoint x="560" y="427" as="sourcePoint" />
            <mxPoint x="650" y="440" as="targetPoint" />
          </mxGeometry>
        </mxCell>
        <mxCell id="TBztsBzBwayd78X2MHeu-59" value="R" style="rounded=0;orthogonalLoop=1;jettySize=auto;html=1;exitX=1;exitY=0.5;exitDx=0;exitDy=0;entryX=0;entryY=0.75;entryDx=0;entryDy=0;" edge="1" parent="1" source="TBztsBzBwayd78X2MHeu-6" target="TBztsBzBwayd78X2MHeu-52">
          <mxGeometry relative="1" as="geometry">
            <mxPoint x="590" y="255" as="sourcePoint" />
            <mxPoint x="680" y="268" as="targetPoint" />
          </mxGeometry>
        </mxCell>
        <mxCell id="TBztsBzBwayd78X2MHeu-61" value="R" style="rounded=0;orthogonalLoop=1;jettySize=auto;html=1;exitX=1;exitY=0.5;exitDx=0;exitDy=0;entryX=0;entryY=0.75;entryDx=0;entryDy=0;" edge="1" parent="1" source="TBztsBzBwayd78X2MHeu-8" target="TBztsBzBwayd78X2MHeu-48">
          <mxGeometry relative="1" as="geometry">
            <mxPoint x="560" y="185" as="sourcePoint" />
            <mxPoint x="650" y="173" as="targetPoint" />
          </mxGeometry>
        </mxCell>
        <mxCell id="TBztsBzBwayd78X2MHeu-62" value="R" style="rounded=0;orthogonalLoop=1;jettySize=auto;html=1;exitX=1;exitY=0.5;exitDx=0;exitDy=0;entryX=0;entryY=0.75;entryDx=0;entryDy=0;" edge="1" parent="1" source="TBztsBzBwayd78X2MHeu-10" target="TBztsBzBwayd78X2MHeu-50">
          <mxGeometry relative="1" as="geometry">
            <mxPoint x="560" y="265" as="sourcePoint" />
            <mxPoint x="650" y="253" as="targetPoint" />
          </mxGeometry>
        </mxCell>
        <mxCell id="TBztsBzBwayd78X2MHeu-63" value="R" style="rounded=0;orthogonalLoop=1;jettySize=auto;html=1;exitX=1;exitY=0.5;exitDx=0;exitDy=0;entryX=0;entryY=0.75;entryDx=0;entryDy=0;" edge="1" parent="1" source="TBztsBzBwayd78X2MHeu-12" target="TBztsBzBwayd78X2MHeu-49">
          <mxGeometry relative="1" as="geometry">
            <mxPoint x="560" y="345" as="sourcePoint" />
            <mxPoint x="650" y="333" as="targetPoint" />
          </mxGeometry>
        </mxCell>
        <mxCell id="TBztsBzBwayd78X2MHeu-64" value="R" style="rounded=0;orthogonalLoop=1;jettySize=auto;html=1;exitX=1;exitY=0.5;exitDx=0;exitDy=0;entryX=0;entryY=0.75;entryDx=0;entryDy=0;" edge="1" parent="1" source="TBztsBzBwayd78X2MHeu-34" target="TBztsBzBwayd78X2MHeu-51">
          <mxGeometry relative="1" as="geometry">
            <mxPoint x="570" y="355" as="sourcePoint" />
            <mxPoint x="660" y="343" as="targetPoint" />
          </mxGeometry>
        </mxCell>
      </root>
    </mxGraphModel>
  </diagram>
</mxfile>
